<?xml version="1.0" standalone="no"?>
<!DOCTYPE svg PUBLIC "-//W3C//DTD SVG 20010904//EN"
 "http://www.w3.org/TR/2001/REC-SVG-20010904/DTD/svg10.dtd">
<svg version="1.0" xmlns="http://www.w3.org/2000/svg"
 width="1400.000000pt" height="875.000000pt" viewBox="0 0 1400.000000 875.000000"
 preserveAspectRatio="xMidYMid meet">

<g transform="translate(0.000000,875.000000) scale(0.100000,-0.100000)"
fill="#000000" stroke="none">
<path d="M980 8736 c8 -7 112 -92 230 -187 118 -96 224 -182 235 -191 11 -9
76 -62 145 -118 187 -152 454 -370 509 -415 26 -22 102 -83 167 -136 363 -293
450 -364 462 -376 8 -7 30 -26 50 -41 21 -15 39 -29 42 -33 3 -3 91 -75 195
-159 166 -136 557 -455 589 -481 6 -5 38 -31 71 -57 33 -26 76 -61 95 -79 19
-17 51 -44 72 -60 20 -15 113 -91 208 -168 94 -77 183 -149 198 -160 15 -11
195 -154 400 -318 205 -164 379 -300 387 -303 8 -4 20 7 31 28 30 59 164 254
209 304 6 6 39 44 75 85 74 83 78 87 147 150 506 459 1180 664 1853 563 306
-45 550 -133 810 -290 148 -89 350 -250 350 -277 0 -16 -623 -637 -638 -637
-6 0 -51 32 -99 70 -249 200 -605 294 -931 246 -202 -30 -410 -112 -571 -227
-87 -61 -250 -220 -308 -299 -158 -218 -247 -471 -260 -735 -13 -302 62 -569
235 -829 64 -96 249 -282 346 -346 134 -89 328 -176 436 -195 19 -3 53 -10 75
-16 72 -17 275 -22 382 -10 125 15 277 51 369 88 76 30 207 101 212 114 2 5 9
9 15 9 32 0 210 176 275 271 62 92 152 302 152 355 0 12 -100 14 -595 16
l-595 3 -1 425 -1 425 1060 3 1060 2 6 -37 c28 -185 31 -579 7 -743 -56 -371
-155 -652 -325 -918 -198 -312 -454 -541 -779 -701 -316 -155 -618 -221 -1010
-221 -216 0 -337 11 -492 46 -107 24 -265 69 -295 85 -8 4 -51 22 -95 40 -245
97 -489 258 -694 456 -53 51 -99 93 -103 93 -11 0 -19 -36 -11 -55 5 -14 3
-17 -10 -12 -11 4 -26 -3 -42 -19 -32 -32 -33 -54 -1 -23 24 23 36 27 36 12 0
-5 -6 -8 -12 -8 -17 0 -17 -57 -1 -62 7 -3 17 7 23 21 13 34 20 33 20 -3 0
-26 -4 -29 -42 -34 -50 -7 -56 -3 -37 19 12 14 11 16 -6 13 -10 -2 -18 -8 -18
-14 2 -20 -19 -47 -28 -38 -7 7 -2 23 12 47 16 27 17 35 6 30 -9 -3 -23 -21
-32 -40 -9 -19 -24 -34 -33 -35 -10 0 -12 -3 -4 -6 17 -7 15 -23 -3 -23 -9 0
-18 -7 -21 -15 -4 -8 -13 -15 -21 -15 -8 0 -33 -18 -55 -39 -28 -28 -38 -45
-34 -58 4 -13 -2 -26 -19 -41 -21 -18 -23 -25 -13 -36 7 -8 18 -13 23 -13 6 1
11 -10 13 -26 2 -20 -1 -27 -13 -27 -9 0 -14 4 -11 9 3 5 -1 11 -9 15 -9 3
-19 -3 -25 -14 -11 -21 -40 -28 -40 -10 0 6 5 10 11 10 8 0 9 12 4 37 -6 33
-5 35 9 24 9 -8 16 -9 16 -3 0 44 -101 -33 -105 -80 -1 -15 -8 -23 -21 -23
-10 0 -31 -12 -45 -27 -24 -24 -25 -27 -8 -31 10 -3 20 0 21 5 2 6 12 2 23 -8
10 -11 21 -17 24 -14 3 3 7 -7 9 -22 2 -21 -1 -28 -13 -28 -9 0 -14 4 -11 9 3
5 -1 12 -9 15 -9 3 -18 -1 -21 -9 -4 -8 -12 -15 -19 -15 -8 0 -22 -11 -33 -25
-21 -26 -32 -24 -32 7 0 15 5 18 20 13 14 -4 20 -2 20 8 0 9 5 17 12 19 7 3 9
11 3 24 -7 18 -8 17 -14 -6 -6 -19 -13 -25 -36 -25 -25 0 -30 -4 -30 -25 0
-20 -5 -25 -23 -23 -14 2 -25 -4 -29 -15 -7 -19 -38 -52 -49 -52 -4 0 -20 -14
-35 -31 -22 -25 -26 -37 -22 -69 5 -34 3 -39 -18 -43 l-24 -4 23 -8 c16 -5 22
-15 22 -36 0 -32 -16 -38 -35 -12 -11 15 -13 15 -24 -5 -6 -12 -18 -22 -26
-22 -17 0 -19 12 -5 26 6 6 8 18 4 28 -5 14 -9 12 -21 -11 -9 -15 -16 -38 -17
-50 -2 -32 -13 -38 -21 -13 -4 13 -3 25 1 29 11 7 34 48 34 58 0 4 -12 -6 -27
-22 -16 -16 -27 -33 -25 -37 1 -5 -2 -8 -8 -8 -5 0 -10 -7 -10 -16 0 -9 5 -12
13 -8 9 6 9 5 0 -7 -10 -12 -10 -18 -1 -27 9 -9 7 -12 -8 -12 -17 0 -20 6 -19
32 2 28 1 29 -12 13 -7 -11 -13 -25 -13 -32 0 -7 -6 -13 -12 -13 -7 -1 1 -7
17 -14 26 -12 28 -15 11 -21 -11 -5 -21 -3 -27 6 -7 11 -9 11 -9 -3 0 -10 -7
-18 -15 -18 -8 0 -15 -7 -15 -15 0 -8 -6 -15 -14 -15 -21 0 -7 42 16 47 10 3
18 9 18 14 0 5 -11 3 -25 -3 -14 -6 -25 -17 -25 -25 0 -7 -4 -13 -10 -13 -5 0
-10 -9 -10 -21 0 -14 5 -19 15 -16 10 5 16 -4 21 -29 9 -50 -20 -79 -70 -70
-25 5 -34 11 -29 21 3 8 9 12 15 9 5 -3 8 2 7 12 -5 29 8 43 34 36 19 -5 20
-4 8 11 -10 12 -18 14 -32 7 -17 -10 -44 -48 -41 -60 4 -16 -12 -50 -24 -50
-8 0 -14 -7 -14 -15 0 -8 -6 -15 -14 -15 -9 0 -13 8 -10 23 l5 22 -10 -22 c-6
-12 -24 -29 -40 -38 -32 -16 -40 -27 -18 -24 28 3 37 -2 37 -22 0 -18 -5 -20
-47 -18 -37 3 -47 0 -49 -14 -1 -9 2 -15 7 -11 5 3 9 -4 9 -15 0 -15 -5 -19
-16 -14 -12 4 -15 2 -12 -8 3 -8 12 -13 21 -13 9 1 13 -4 10 -12 -6 -16 -23
-19 -23 -4 0 6 -9 10 -20 10 -14 0 -18 5 -14 17 5 16 4 16 -8 2 -7 -9 -18 -14
-23 -12 -6 2 -12 -8 -13 -23 -3 -35 -10 -45 -30 -42 -9 2 -16 -3 -14 -9 1 -7
-7 -13 -18 -13 -11 0 -20 -7 -20 -15 0 -8 5 -15 10 -15 6 0 10 -4 10 -10 0 -5
-13 -8 -29 -6 -20 2 -32 -2 -36 -11 -4 -12 2 -14 30 -11 29 3 35 1 35 -14 0
-10 -4 -18 -10 -18 -5 0 -10 5 -10 10 0 6 -4 10 -9 10 -13 0 -20 -35 -11 -51
7 -10 11 -10 24 0 14 12 16 10 16 -8 0 -18 -4 -21 -22 -16 -16 4 -19 3 -9 -3
7 -5 9 -12 5 -14 -13 -8 -48 0 -52 10 -2 6 -13 7 -25 5 l-22 -6 23 22 c25 25
27 31 9 31 -8 0 -20 -11 -27 -25 -7 -14 -19 -25 -27 -25 -7 0 -13 -4 -13 -10
0 -5 14 -10 30 -10 17 0 30 -5 30 -11 0 -8 -13 -9 -39 -5 -35 5 -42 3 -61 -21
-12 -16 -17 -29 -11 -31 18 -6 13 -52 -5 -52 -12 0 -15 6 -11 22 3 13 1 32 -3
43 -8 19 -9 19 -9 -3 -1 -27 -58 -81 -86 -82 -19 -1 -19 -2 1 -10 12 -5 38 -5
58 0 31 7 38 5 47 -11 7 -13 6 -19 -1 -19 -6 0 -8 -4 -5 -10 3 -5 1 -10 -4
-10 -6 0 -11 6 -11 13 0 7 -15 12 -41 13 -34 0 -40 -2 -36 -18 4 -13 -2 -20
-19 -24 -18 -5 -24 -13 -24 -34 0 -31 -15 -46 -47 -48 -26 -1 -29 8 -11 26 9
9 9 15 0 24 -9 9 -12 8 -12 -6 0 -13 -5 -16 -16 -12 -13 5 -15 2 -11 -14 3
-13 1 -19 -6 -18 -7 2 -14 -2 -16 -7 -2 -6 -16 -22 -32 -38 -16 -15 -29 -33
-29 -40 0 -8 -4 -7 -10 3 -8 13 -10 12 -10 -2 0 -10 -4 -18 -10 -18 -12 0 -14
-46 -2 -53 4 -2 1 -2 -6 -1 -7 2 -25 1 -41 -2 -23 -5 -28 -11 -25 -28 2 -11 2
-15 -2 -8 -8 17 -24 15 -24 -3 0 -8 -7 -15 -15 -15 -8 0 -15 -4 -15 -10 0 -5
7 -10 15 -10 8 0 15 5 15 10 0 16 17 12 24 -6 3 -8 2 -12 -4 -9 -5 3 -20 1
-32 -6 -16 -9 -23 -9 -26 0 -2 6 -8 9 -12 6 -5 -3 -6 -13 -3 -22 5 -12 2 -15
-10 -10 -12 4 -17 1 -17 -9 0 -10 -6 -14 -15 -10 -18 7 -20 -5 -2 -23 10 -10
7 -12 -13 -9 -14 2 -25 -2 -25 -9 0 -6 -13 -23 -30 -37 -16 -14 -26 -28 -22
-32 4 -4 18 3 32 16 21 20 25 21 25 6 0 -9 -8 -20 -17 -24 -10 -4 -18 -13 -18
-21 0 -8 -6 -16 -14 -19 -8 -3 -11 -1 -8 4 3 5 -1 18 -9 28 -13 19 -14 19 -21
0 -4 -10 -16 -26 -26 -35 -11 -8 -18 -22 -15 -29 3 -10 10 -8 26 8 16 16 22
18 22 7 0 -18 -37 -38 -56 -31 -20 8 -29 4 -26 -10 1 -8 -5 -10 -18 -7 -16 4
-19 2 -13 -13 5 -13 3 -16 -10 -11 -24 9 -21 -7 7 -34 l24 -23 -23 -18 c-25
-20 -40 -24 -30 -8 13 20 13 49 1 53 -7 3 -20 -8 -30 -23 -9 -16 -30 -39 -47
-51 -17 -12 -34 -32 -39 -45 -5 -13 -16 -24 -25 -24 -22 0 -18 -17 5 -23 14
-3 20 -14 20 -31 0 -14 5 -26 10 -26 6 0 10 -11 10 -25 l0 -25 4523 1 c2792 0
4513 4 4499 10 -13 5 -21 13 -18 17 3 5 -1 17 -8 27 -15 20 -41 11 -32 -11 4
-11 -5 -14 -39 -14 -45 0 -45 0 -45 34 0 19 4 38 10 41 15 9 12 25 -5 25 -9 0
-33 18 -55 40 -22 22 -44 40 -50 40 -5 0 -10 6 -10 14 0 7 -9 16 -21 19 -12 3
-18 10 -14 16 3 6 -2 11 -12 11 -11 0 -24 5 -31 12 -9 9 -12 9 -12 0 0 -7 -10
-12 -22 -11 -13 0 -17 3 -10 6 9 3 11 16 6 39 -7 40 11 47 27 10 7 -14 22 -27
34 -30 13 -3 33 -17 46 -31 13 -13 29 -25 36 -25 7 0 16 -6 20 -14 4 -8 34
-35 66 -61 44 -35 55 -50 45 -56 -10 -7 -9 -9 5 -9 9 0 17 -8 18 -17 1 -12 4
-9 8 7 l7 25 12 -22 c7 -13 17 -23 23 -23 6 0 30 -16 53 -35 l43 -35 1092 0
1091 0 0 4375 0 4375 -6517 0 c-5480 0 -6515 -2 -6503 -14z m10270 0 c0 -3
-55 -58 -122 -123 -156 -152 -168 -164 -168 -174 0 -5 -7 -9 -15 -9 -7 0 -18
-7 -23 -16 -12 -22 -214 -225 -219 -220 -5 5 48 67 92 108 68 65 165 160 165
163 0 2 62 64 138 139 122 121 152 147 152 132z m-588 -585 c-15 -22 -35 -42
-46 -45 -16 -4 -15 -1 5 21 13 15 31 34 39 44 28 33 30 19 2 -20z m-72 -67 c0
-9 -459 -461 -464 -456 -5 4 451 462 460 462 2 0 4 -3 4 -6z m-470 -478 c0 -3
-4 -8 -10 -11 -5 -3 -10 -1 -10 4 0 6 5 11 10 11 6 0 10 -2 10 -4z m-36 -41
c-4 -8 -8 -15 -10 -15 -2 0 -4 7 -4 15 0 8 4 15 10 15 5 0 7 -7 4 -15z m-54
-43 c0 -10 -130 -142 -141 -142 -6 0 129 146 139 149 1 1 2 -3 2 -7z m-176
-182 c-10 -16 -20 -27 -22 -25 -5 5 26 55 34 55 3 0 -3 -13 -12 -30z m-54 -54
c0 -3 -4 -8 -10 -11 -5 -3 -10 -1 -10 4 0 6 5 11 10 11 6 0 10 -2 10 -4z m-84
-81 c-15 -14 -30 -25 -33 -25 -4 0 4 11 17 25 13 14 28 25 33 25 6 0 -2 -11
-17 -25z m-86 -90 c-18 -19 -36 -32 -39 -30 -6 7 50 65 63 65 5 0 -5 -16 -24
-35z m-67 -63 c-10 -10 -20 -17 -22 -16 -6 5 20 34 30 34 5 0 1 -8 -8 -18z
m-53 -56 c0 -2 -7 -7 -16 -10 -8 -3 -12 -2 -9 4 6 10 25 14 25 6z m-79 -79
c-10 -9 -11 -8 -5 6 3 10 9 15 12 12 3 -3 0 -11 -7 -18z m-21 -11 c0 -7 -61
-69 -90 -91 -14 -11 0 6 30 37 55 57 60 62 60 54z m-127 -131 c-3 -9 -8 -14
-10 -11 -3 3 -2 9 2 15 9 16 15 13 8 -4z m-40 -40 c-12 -9 -29 -26 -38 -38 -8
-12 -15 -16 -15 -10 0 14 50 63 65 63 5 0 0 -7 -12 -15z m-93 -90 c-13 -14
-25 -23 -28 -21 -5 6 31 44 42 45 5 1 -1 -10 -14 -24z m-60 -65 c-8 -5 -17 -7
-19 -4 -3 3 1 9 9 14 8 5 17 7 19 4 3 -3 -1 -9 -9 -14z m-89 -88 c-28 -27 -51
-45 -51 -42 0 15 34 52 61 65 16 9 29 23 30 33 0 11 2 12 6 4 3 -7 -18 -34
-46 -60z m-107 -104 c-10 -13 -20 -25 -21 -27 -2 -2 -3 1 -3 7 0 11 27 42 37
42 3 0 -2 -10 -13 -22z m-64 -62 c0 -2 -8 -10 -17 -17 -16 -13 -17 -12 -4 4
13 16 21 21 21 13z m-72 -75 c-13 -17 -27 -30 -32 -30 -9 -1 20 37 39 51 18
14 17 8 -7 -21z m-78 -80 c0 -12 -20 -25 -27 -18 -7 7 6 27 18 27 5 0 9 -4 9
-9z m-91 -90 c-13 -11 -26 -18 -28 -15 -2 2 7 12 20 23 13 11 26 18 28 15 2
-2 -7 -12 -20 -23z m-39 -41 c0 -5 -5 -10 -11 -10 -5 0 -7 5 -4 10 3 6 8 10
11 10 2 0 4 -4 4 -10z m-3183 -3286 c-3 -3 -12 -4 -19 -1 -8 3 -5 6 6 6 11 1
17 -2 13 -5z m19 -60 c1 -15 -4 -24 -12 -24 -9 0 -14 12 -14 35 0 28 3 33 13
24 6 -6 13 -22 13 -35z m74 -65 c0 -5 -4 -9 -10 -9 -5 0 -10 7 -10 16 0 8 5
12 10 9 6 -3 10 -10 10 -16z m3101 -17 c11 -13 12 -22 4 -37 -11 -22 -45 -33
-45 -15 0 6 5 8 12 4 7 -5 9 -2 5 9 -3 9 -1 18 6 20 9 3 8 8 -2 20 -18 23 0
22 20 -1z m-3329 -7 c0 -5 -5 -11 -10 -13 -5 -1 -9 4 -9 13 0 9 4 14 9 13 5
-2 10 -8 10 -13z m48 -5 c0 -13 -5 -18 -14 -14 -8 3 -12 12 -9 20 8 21 23 17
23 -6z m260 -1 c0 -6 -4 -7 -10 -4 -5 3 -10 11 -10 16 0 6 5 7 10 4 6 -3 10
-11 10 -16z m-340 -5 c0 -2 -9 -4 -21 -4 -11 0 -18 4 -14 10 5 8 35 3 35 -6z
m-30 -25 c0 -5 6 -8 13 -6 7 1 13 -10 15 -25 2 -21 -1 -28 -13 -28 -9 0 -14 4
-11 9 3 5 -1 11 -9 15 -9 3 -19 -3 -25 -14 -6 -11 -17 -20 -25 -20 -17 0 -20
16 -4 26 6 3 8 17 4 31 -5 20 -3 24 9 20 9 -4 16 -2 16 3 0 5 7 7 15 4 8 -4
15 -10 15 -15z m320 11 c0 -5 -4 -10 -10 -10 -5 0 -10 5 -10 10 0 6 5 10 10
10 6 0 10 -4 10 -10z m3009 -58 c-11 -7 -29 -11 -42 -9 l-22 4 23 8 c17 5 22
13 19 26 -3 11 -1 17 4 13 5 -3 9 1 9 8 1 7 7 2 14 -12 13 -22 12 -26 -5 -38z
m110 37 c26 -21 23 -36 -5 -25 -9 4 -14 9 -11 13 4 3 -1 12 -11 19 -9 7 -12
13 -7 13 6 0 21 -9 34 -20z m-3329 -8 c0 -22 -37 -38 -52 -23 -8 8 12 25 50
41 1 1 2 -8 2 -18z m-185 -11 c-10 -11 -15 -20 -11 -20 4 0 2 -9 -5 -21 -7
-14 -14 -18 -21 -11 -15 15 21 71 46 72 5 0 1 -9 -9 -20z m451 5 c4 -8 13 -15
21 -15 8 0 11 -4 8 -10 -13 -21 -65 3 -65 31 0 15 30 10 36 -6z m-86 -25 c0
-11 -4 -20 -9 -20 -14 0 -23 18 -16 30 10 17 25 11 25 -10z m170 5 c10 -12 10
-15 -3 -15 -8 0 -17 7 -21 15 -3 8 -2 15 3 15 5 0 14 -7 21 -15z m2954 -7 c-3
-4 -9 -8 -15 -8 -5 0 -9 4 -9 8 0 5 7 9 15 9 8 0 12 -4 9 -9z m76 2 c0 -5 7
-10 15 -10 8 0 15 -7 15 -15 0 -19 -2 -19 -28 4 -24 20 -28 31 -12 31 6 0 10
-4 10 -10z m0 -44 c0 -3 -4 -8 -10 -11 -5 -3 -10 -1 -10 4 0 6 5 11 10 11 6 0
10 -2 10 -4z m165 -78 c48 -34 77 -66 67 -72 -7 -4 -12 -1 -12 8 0 18 -32 29
-62 22 -13 -3 -17 -3 -10 0 32 15 6 43 -47 50 -26 3 -54 24 -33 24 7 0 12 5
12 10 0 14 -33 12 -49 -2 -8 -7 -6 -1 3 14 l18 27 51 -37 c29 -20 57 -40 62
-44z m-3125 35 c0 -25 -1 -25 -19 -9 -16 14 -17 21 -8 31 16 18 27 9 27 -22z
m2700 27 c0 -5 -5 -10 -11 -10 -5 0 -7 5 -4 10 3 6 8 10 11 10 2 0 4 -4 4 -10z
m-3328 -15 c0 -5 -5 -11 -10 -13 -5 -1 -9 4 -9 13 0 9 4 14 9 13 5 -2 10 -8
10 -13z m48 -5 c0 -13 -5 -18 -14 -14 -8 3 -12 12 -9 20 8 21 23 17 23 -6z
m-80 0 c0 -5 -5 -10 -11 -10 -5 0 -7 5 -4 10 3 6 8 10 11 10 2 0 4 -4 4 -10z
m80 -49 c0 -22 -37 -38 -52 -23 -8 8 12 25 50 41 1 1 2 -8 2 -18z m3200 -1 c0
-15 -7 -20 -29 -20 -17 0 -32 -4 -35 -9 -3 -5 -15 -11 -26 -14 -16 -4 -14 1
10 23 47 44 80 52 80 20z m-3380 0 c0 -6 -7 -25 -16 -41 -13 -26 -17 -29 -31
-17 -15 12 -14 13 6 16 15 3 21 8 17 19 -3 8 -4 19 0 24 7 12 24 11 24 -1z
m910 -10 c11 -7 7 -10 -18 -10 -20 0 -31 4 -27 10 8 13 26 13 45 0z m2905 -20
c3 -5 -3 -10 -14 -10 -12 0 -21 5 -21 10 0 6 6 10 14 10 8 0 18 -4 21 -10z
m-2831 -34 c22 -18 27 -29 21 -46 -5 -15 0 -29 16 -46 23 -25 12 -32 -22 -14
-10 6 -19 20 -19 30 0 17 -7 20 -40 20 l-40 0 0 40 c0 37 2 40 28 40 15 -1 40
-11 56 -24z m3040 -39 c26 -22 35 -36 28 -41 -7 -4 -12 -1 -12 8 0 9 -9 16
-20 16 -11 0 -20 5 -20 10 0 14 -38 12 -43 -2 -2 -8 -8 -9 -13 -4 -5 5 -4 11
4 13 6 3 12 11 12 19 0 23 22 16 64 -19z m-869 -6 c-6 -5 -25 10 -25 20 0 5 6
4 14 -3 8 -7 12 -15 11 -17z m-3183 4 c0 -5 -5 -11 -10 -13 -5 -1 -9 4 -9 13
0 9 4 14 9 13 5 -2 10 -8 10 -13z m48 -5 c0 -13 -5 -18 -14 -14 -8 3 -12 12
-9 20 8 21 23 17 23 -6z m3177 14 c-3 -3 -12 -4 -19 -1 -8 3 -5 6 6 6 11 1 17
-2 13 -5z m-3257 -14 c0 -5 -9 -10 -21 -10 -11 0 -17 5 -14 10 3 6 13 10 21
10 8 0 14 -4 14 -10z m3187 -6 c-3 -3 -12 -4 -19 -1 -8 3 -5 6 6 6 11 1 17 -2
13 -5z m-3107 -43 c0 -22 -37 -38 -52 -23 -8 8 12 25 50 41 1 1 2 -8 2 -18z
m1118 -14 c3 -22 -1 -27 -17 -27 -12 0 -21 5 -21 10 0 6 -9 10 -20 10 -27 0
-25 13 3 27 34 17 52 11 55 -20z m2975 -1 c13 -12 28 -25 34 -27 6 -2 14 -15
18 -28 7 -22 3 -20 -30 12 -21 21 -44 37 -52 37 -7 0 -13 7 -13 15 0 22 16 18
43 -9z m-1113 4 c0 -5 -4 -10 -10 -10 -5 0 -10 5 -10 10 0 6 5 10 10 10 6 0
10 -4 10 -10z m1050 -21 c0 -5 -7 -9 -15 -9 -8 0 -15 7 -15 15 0 9 6 12 15 9
8 -4 15 -10 15 -15z m-2787 -6 c-7 -2 -21 -2 -30 0 -10 3 -4 5 12 5 17 0 24
-2 18 -5z m2849 -65 c-10 -22 -11 -21 -11 12 -1 26 2 31 11 22 8 -8 8 -17 0
-34z m176 -55 c7 -7 17 -13 22 -13 5 0 19 -10 32 -23 13 -12 43 -38 68 -57 24
-19 56 -46 70 -59 l25 -24 -42 22 c-24 12 -43 17 -43 11 0 -6 -11 -3 -24 7
-13 10 -21 24 -19 30 3 7 0 13 -6 13 -6 0 -11 -5 -11 -11 0 -5 -5 -7 -10 -4
-7 5 -8 11 -1 18 11 13 -9 47 -27 47 -6 0 -23 11 -38 25 -33 31 -44 32 -44 3
0 -14 3 -18 8 -12 5 9 11 8 20 -2 11 -12 10 -14 -5 -14 -25 1 -53 24 -53 44 0
9 8 20 18 24 13 5 11 8 -13 12 -22 4 -31 11 -33 30 -4 23 -2 22 45 -15 26 -22
54 -45 61 -52z m-4508 52 c0 -8 -9 -15 -20 -15 -20 0 -26 11 -13 23 12 13 33
7 33 -8z m1777 -20 c39 -10 53 -10 57 -1 2 6 5 4 5 -5 1 -9 -9 -24 -21 -32
l-23 -16 23 0 c12 -1 22 -5 22 -11 0 -6 -33 -10 -80 -10 -50 0 -80 4 -80 11 0
6 12 10 28 9 15 -1 38 -2 52 -1 21 1 20 3 -15 21 -22 11 -45 20 -51 20 -14 0
-26 25 -16 35 4 3 16 3 27 0 11 -4 43 -13 72 -20z m1183 -5 c0 -25 -6 -33 -35
-47 -19 -9 -37 -14 -40 -11 -10 10 7 37 26 43 10 4 24 15 29 26 15 27 20 24
20 -11z m-2880 -15 c0 -19 -4 -35 -10 -35 -5 0 -10 16 -10 35 0 19 5 35 10 35
6 0 10 -16 10 -35z m-126 9 c9 -3 16 -10 16 -16 0 -14 -43 -5 -48 10 -4 13 7
15 32 6z m58 -16 c-7 -7 -12 -8 -12 -2 0 14 12 26 19 19 2 -3 -1 -11 -7 -17z
m-97 -8 c3 -6 -1 -7 -9 -4 -18 7 -21 14 -7 14 6 0 13 -4 16 -10z m2885 -20 c0
-24 -6 -25 -25 -6 -15 15 -10 26 12 26 7 0 13 -9 13 -20z m-2762 -8 c2 -7 -6
-12 -17 -12 -21 0 -27 11 -14 24 9 9 26 2 31 -12z m1982 8 c0 -5 -2 -10 -4
-10 -3 0 -8 5 -11 10 -3 6 -1 10 4 10 6 0 11 -4 11 -10z m460 -5 c0 -16 -35
-20 -64 -9 -29 11 -16 24 24 24 29 0 40 -4 40 -15z m-2557 -9 c7 -17 -20 -30
-27 -13 -3 8 -9 6 -16 -6 -10 -15 -14 -16 -27 -5 -13 10 -10 14 18 24 45 16
46 16 52 0z m37 4 c0 -5 -4 -10 -10 -10 -5 0 -10 5 -10 10 0 6 5 10 10 10 6 0
10 -4 10 -10z m2660 7 c-10 -9 -102 -18 -97 -10 3 5 27 10 54 12 26 1 45 0 43
-2z m70 -7 c11 -7 7 -10 -17 -10 -17 0 -35 5 -38 10 -8 13 35 13 55 0z m-2819
-83 c-13 -13 -26 -3 -16 12 3 6 11 8 17 5 6 -4 6 -10 -1 -17z m45 -4 c-10 -10
-19 5 -10 18 6 11 8 11 12 0 2 -7 1 -15 -2 -18z m4664 -44 c0 -11 -4 -17 -10
-14 -5 3 -10 13 -10 21 0 8 5 14 10 14 6 0 10 -9 10 -21z m-4660 -3 c0 -15
-38 -29 -53 -19 -5 3 1 12 14 19 31 17 39 17 39 0z m4726 -22 c-17 -16 -56
-19 -56 -4 0 6 11 10 25 10 14 0 25 5 25 11 0 5 5 7 10 4 6 -4 5 -12 -4 -21z
m104 -10 c0 -2 -7 -4 -15 -4 -8 0 -15 4 -15 10 0 5 7 7 15 4 8 -4 15 -8 15
-10z m37 -29 c3 -9 3 -19 -1 -22 -7 -7 -36 16 -36 28 0 15 30 10 37 -6z m93
-65 c3 -3 19 -16 36 -28 18 -12 47 -36 66 -54 18 -18 46 -42 61 -52 29 -20 35
-41 15 -49 -10 -4 -10 -7 -1 -18 10 -10 16 -9 33 6 20 19 21 18 46 -8 13 -15
50 -46 82 -69 31 -24 64 -50 72 -58 8 -8 27 -21 43 -29 15 -8 27 -18 27 -22 0
-5 19 -22 43 -38 23 -16 65 -51 92 -77 28 -26 70 -63 95 -82 58 -45 80 -68 79
-84 0 -10 -2 -10 -6 0 -2 6 -13 12 -23 12 -11 0 -24 9 -30 20 -6 11 -17 20
-25 20 -8 0 -15 5 -15 11 0 7 -10 9 -25 7 -23 -5 -25 -2 -25 28 0 27 -4 34
-19 34 -11 0 -23 -4 -26 -10 -3 -5 -13 -10 -21 -10 -8 0 -14 5 -14 10 0 6 7
10 15 10 17 0 19 9 5 30 -8 12 -12 13 -19 2 -6 -11 -10 -10 -15 4 -4 10 -1 21
6 26 9 6 5 7 -9 3 -16 -4 -23 -2 -23 7 0 7 -9 19 -20 26 -11 7 -20 19 -20 27
0 8 -7 15 -15 15 -8 0 -24 9 -35 20 -11 11 -22 20 -25 20 -11 0 -4 -29 8 -33
8 -4 7 -6 -3 -6 -23 -1 -60 28 -60 47 0 12 3 13 12 4 14 -14 38 -16 38 -4 0 5
-11 14 -25 20 -14 7 -36 17 -50 24 -14 6 -25 20 -25 30 0 11 -5 16 -11 13 -6
-4 -19 2 -29 13 -15 16 -27 19 -60 15 l-40 -6 0 42 c0 30 -4 41 -15 41 -8 0
-15 4 -15 8 0 5 -11 14 -25 20 -14 7 -25 20 -25 31 0 19 -34 34 -62 28 -7 -2
-10 -2 -5 0 13 8 7 33 -8 33 -38 0 -85 45 -85 83 0 7 64 -36 80 -53z m-5160
22 c0 -10 -21 -32 -31 -32 -4 0 -5 9 -2 20 5 19 33 29 33 12z m5027 -18 c-3
-3 -12 -4 -19 -1 -8 3 -5 6 6 6 11 1 17 -2 13 -5z m50 -29 c7 -20 -24 -44 -56
-45 -23 0 -23 1 -8 18 10 10 17 24 17 30 0 18 40 14 47 -3z m-5197 -55 c0 -5
-2 -10 -4 -10 -3 0 -8 5 -11 10 -3 6 -1 10 4 10 6 0 11 -4 11 -10z m-4 -67
c-11 -11 -19 6 -11 24 8 17 8 17 12 0 3 -10 2 -21 -1 -24z m-8 -50 c-10 -2
-18 -12 -18 -20 0 -9 -3 -14 -6 -10 -12 11 5 37 23 36 17 -1 17 -2 1 -6z m-68
-18 c0 -9 -9 -15 -22 -15 -22 1 -23 1 -4 15 25 19 26 19 26 0z m-71 -16 c-19
-12 -29 -11 -29 2 0 5 5 7 10 4 6 -3 10 -1 10 5 0 6 5 8 11 4 8 -4 7 -9 -2
-15z m-56 -44 c-3 -9 -8 -14 -10 -11 -3 3 -2 9 2 15 9 16 15 13 8 -4z m5742 5
c3 -5 1 -10 -4 -10 -6 0 -11 5 -11 10 0 6 2 10 4 10 3 0 8 -4 11 -10z m-5745
-51 c-13 -23 -38 -36 -48 -23 -4 5 -5 8 -3 7 2 -2 10 6 18 17 20 28 48 27 33
-1z m-150 -123 c0 -35 -21 -63 -40 -51 -7 4 -3 17 10 36 12 16 18 33 15 39 -3
5 -1 10 4 10 6 0 11 -15 11 -34z m-40 -1 c0 -14 -4 -25 -9 -25 -4 0 -6 11 -3
25 2 14 6 25 8 25 2 0 4 -11 4 -25z m6187 -21 c-3 -3 -12 -4 -19 -1 -8 3 -5 6
6 6 11 1 17 -2 13 -5z m-12 -34 c3 -5 1 -10 -4 -10 -6 0 -11 5 -11 10 0 6 2
10 4 10 3 0 8 -4 11 -10z m198 -140 c-6 -24 -26 -21 -31 3 -2 11 3 17 16 17
15 0 19 -5 15 -20z m191 -94 c-6 -18 -5 -19 8 -8 12 10 18 8 33 -8 10 -11 13
-20 7 -20 -7 0 -12 5 -12 10 0 6 -7 10 -15 10 -18 0 -20 -26 -2 -33 9 -4 9 -6
-1 -6 -8 -1 -16 8 -19 19 -3 11 -9 20 -14 20 -5 0 -9 -9 -9 -20 0 -13 -7 -20
-20 -20 -12 0 -20 7 -20 18 0 21 37 55 50 47 6 -4 10 -2 10 3 0 5 -13 12 -30
16 -18 3 -30 12 -30 21 0 8 -4 15 -10 15 -5 0 -10 5 -10 11 0 5 20 -4 45 -22
36 -26 44 -37 39 -53z m-6668 66 c9 -5 8 -10 -1 -19 -10 -9 -14 -8 -18 8 -5
20 0 24 19 11z m6444 -12 c0 -5 -4 -10 -10 -10 -5 0 -10 5 -10 10 0 6 5 10 10
10 6 0 10 -4 10 -10z m-6585 -19 c-3 -6 -14 -11 -23 -11 -15 1 -15 2 2 15 21
16 32 13 21 -4z m6622 -7 c-3 -3 -12 -4 -19 -1 -8 3 -5 6 6 6 11 1 17 -2 13
-5z m133 -9 c0 -1 -7 -8 -15 -15 -13 -10 -15 -9 -15 8 0 15 5 20 15 16 8 -4
15 -7 15 -9z m-6835 -64 c-3 -6 -11 -11 -17 -11 -6 0 -6 6 2 15 14 17 26 13
15 -4z m7027 -48 c34 -26 66 -53 71 -59 4 -7 23 -22 42 -34 19 -12 33 -25 30
-30 -7 -11 22 -33 34 -26 5 3 20 -3 33 -14 12 -11 61 -50 108 -88 107 -84 152
-127 143 -135 -3 -4 -13 0 -22 8 -49 45 -91 75 -105 75 -9 0 -16 6 -16 13 0 7
-13 23 -29 35 l-29 21 -6 -24 c-5 -21 -13 -25 -41 -25 -33 0 -35 2 -35 33 0
18 5 38 12 45 9 9 9 15 0 24 -7 7 -12 9 -12 5 0 -6 -12 3 -62 50 -17 15 -18
15 -18 -9 0 -15 6 -28 12 -30 9 -3 8 -9 -4 -21 -21 -21 -124 -23 -150 -3 -19
14 -25 66 -8 66 6 0 15 -11 21 -24 14 -31 51 -47 89 -40 42 9 38 21 -9 29 -41
7 -79 35 -47 35 11 0 16 9 16 31 0 18 4 28 10 24 6 -3 7 -17 4 -29 -4 -17 -1
-25 13 -28 20 -5 24 17 10 57 -7 21 -67 51 -67 34 0 -14 -20 -11 -36 5 -19 19
-18 32 1 16 28 -23 25 -4 -5 28 -41 45 -22 40 52 -15z m-7212 -163 c0 -13 -7
-20 -20 -20 -19 0 -27 20 -13 33 13 14 33 6 33 -13z m-50 -19 c0 -12 -20 -25
-27 -18 -7 7 6 27 18 27 5 0 9 -4 9 -9z m115 -11 c3 -5 -1 -10 -10 -10 -9 0
-13 5 -10 10 3 6 8 10 10 10 2 0 7 -4 10 -10z m7290 0 c3 -5 1 -10 -4 -10 -6
0 -11 5 -11 10 0 6 2 10 4 10 3 0 8 -4 11 -10z m-7445 -42 c0 -16 -3 -19 -11
-11 -6 6 -8 16 -5 22 11 17 16 13 16 -11z m7610 -99 c0 -14 -8 -11 -30 11 -27
27 -25 34 5 14 14 -9 25 -20 25 -25z m-7682 8 c2 -12 -3 -17 -17 -17 -12 0
-21 6 -21 13 0 31 32 34 38 4z m112 3 c0 -11 -4 -20 -9 -20 -5 0 -7 9 -4 20 3
11 7 20 9 20 2 0 4 -9 4 -20z m7627 -39 c-5 -2 -13 3 -18 10 -15 24 -10 30 9
12 10 -10 14 -20 9 -22z m-7667 9 c12 -8 9 -10 -13 -10 -16 0 -26 4 -22 10 8
12 16 12 35 0z m-160 -42 c0 -16 -3 -19 -11 -11 -6 6 -8 16 -5 22 11 17 16 13
16 -11z m7887 -10 c-3 -8 -6 -5 -6 6 -1 11 2 17 5 13 3 -3 4 -12 1 -19z m98
-14 c6 -11 15 -19 21 -17 6 2 31 -14 55 -36 24 -22 52 -43 62 -46 24 -9 22
-45 -3 -45 -13 0 -20 -7 -20 -20 0 -16 -6 -20 -32 -19 -18 0 -27 3 -20 6 14 5
17 40 3 45 -4 2 -12 14 -16 28 -6 20 -5 23 6 13 22 -21 42 -16 22 5 -10 11
-20 18 -23 16 -3 -1 -23 9 -45 22 -22 13 -35 24 -28 24 7 0 9 9 5 22 -4 18 -6
19 -11 5 -4 -11 -11 -13 -20 -8 -17 11 -4 33 17 29 9 -2 21 -13 27 -24z
m-8030 -14 c-3 -5 -11 -10 -16 -10 -6 0 -7 5 -4 10 3 6 11 10 16 10 6 0 7 -4
4 -10z m7985 -20 c0 -13 -7 -20 -20 -20 -19 0 -27 20 -13 33 13 14 33 6 33
-13z m-8012 -33 c2 -12 -3 -17 -17 -17 -12 0 -21 6 -21 13 0 31 32 34 38 4z
m112 3 c0 -11 -4 -20 -9 -20 -5 0 -7 9 -4 20 3 11 7 20 9 20 2 0 4 -9 4 -20z
m7900 -36 c0 -2 -13 -4 -30 -4 -23 0 -30 5 -30 19 0 18 2 19 30 5 17 -9 30
-17 30 -20z m-7940 6 c12 -8 9 -10 -13 -10 -16 0 -26 4 -22 10 8 12 16 12 35
0z m7975 0 c3 -5 1 -10 -4 -10 -6 0 -11 5 -11 10 0 6 2 10 4 10 3 0 8 -4 11
-10z m215 -75 c10 -12 10 -15 -3 -15 -8 0 -17 7 -21 15 -3 8 -2 15 3 15 5 0
14 -7 21 -15z m-8310 -45 c0 -27 -4 -50 -10 -50 -5 0 -10 23 -10 50 0 28 5 50
10 50 6 0 10 -22 10 -50z m8255 40 c3 -5 1 -10 -4 -10 -6 0 -11 5 -11 10 0 6
2 10 4 10 3 0 8 -4 11 -10z m-8375 -55 c0 -9 -6 -12 -15 -9 -8 4 -12 10 -9 15
8 14 24 10 24 -6z m-43 -20 c-4 -8 -11 -15 -17 -15 -14 0 -13 27 3 33 16 6 21
1 14 -18z m123 -6 c0 -5 -12 -9 -26 -9 -22 0 -24 2 -14 14 12 15 40 11 40 -5z
m-185 -90 c5 1 9 -10 10 -23 0 -13 3 -28 8 -32 13 -13 7 -24 -13 -24 -17 0
-20 7 -20 41 0 36 -2 41 -20 36 -11 -3 -20 -1 -20 4 0 5 7 9 15 9 8 0 15 6 16
13 0 6 4 4 8 -6 4 -10 11 -18 16 -18z m65 -39 c0 -22 -4 -40 -10 -40 -5 0 -10
18 -10 40 0 22 5 40 10 40 6 0 10 -18 10 -40z m-110 -4 c0 -20 -21 -34 -52
-34 -31 1 -35 9 -13 28 12 10 15 10 15 -4 0 -9 5 -16 11 -16 5 0 7 5 4 10 -3
6 -3 15 0 20 9 15 35 12 35 -4z"/>
<path d="M10850 746 c0 -2 7 -6 15 -10 8 -3 15 -1 15 4 0 6 -7 10 -15 10 -8 0
-15 -2 -15 -4z"/>
<path d="M11238 423 c-25 -6 -23 -23 3 -23 13 0 18 4 13 12 -5 8 -2 9 9 5 10
-3 17 -2 17 3 0 10 -12 11 -42 3z"/>
<path d="M4985 2479 c-4 -6 -5 -13 -2 -16 7 -7 27 6 27 18 0 12 -17 12 -25 -2z"/>
<path d="M4745 2230 c-3 -6 1 -7 9 -4 18 7 21 14 7 14 -6 0 -13 -4 -16 -10z"/>
<path d="M4506 1991 c-3 -5 1 -14 10 -21 11 -10 18 -10 27 -1 9 9 9 14 -3 21
-19 12 -27 12 -34 1z"/>
<path d="M4485 1940 c3 -5 10 -10 16 -10 5 0 9 5 9 10 0 6 -7 10 -16 10 -8 0
-12 -4 -9 -10z"/>
<path d="M4228 1638 c-15 -15 -16 -18 -3 -18 9 0 18 7 22 15 8 23 0 24 -19 3z"/>
<path d="M4143 1615 c0 -8 4 -12 9 -9 4 3 8 9 8 15 0 5 -4 9 -8 9 -5 0 -9 -7
-9 -15z"/>
<path d="M4018 1483 c6 -2 18 -2 25 0 6 3 1 5 -13 5 -14 0 -19 -2 -12 -5z"/>
<path d="M3545 1040 c-3 -5 -2 -10 4 -10 5 0 13 5 16 10 3 6 2 10 -4 10 -5 0
-13 -4 -16 -10z"/>
<path d="M3490 956 c0 -12 -5 -16 -15 -12 -10 4 -15 -1 -15 -14 0 -26 12 -25
35 0 14 16 16 23 7 32 -9 9 -12 8 -12 -6z"/>
<path d="M3438 914 c-3 -2 -3 -17 0 -34 5 -35 27 -41 27 -6 0 22 -18 50 -27
40z"/>
<path d="M3225 709 c-11 -17 1 -21 15 -4 8 9 8 15 2 15 -6 0 -14 -5 -17 -11z"/>
<path d="M2617 74 c-16 -19 -34 -34 -42 -34 -8 0 -15 -6 -15 -14 0 -8 -6 -16
-12 -18 -7 -3 11 -6 41 -7 53 -1 86 12 74 32 -3 5 -6 23 -5 38 1 41 -10 42
-41 3z m20 -29 c-4 -8 -14 -14 -24 -14 -17 1 -17 2 0 6 9 2 17 12 17 20 0 9 3
14 6 10 4 -3 4 -13 1 -22z"/>
<path d="M2665 10 c-3 -5 3 -10 15 -10 12 0 18 5 15 10 -3 6 -10 10 -15 10 -5
0 -12 -4 -15 -10z"/>
</g>
</svg>
